<?xml version="1.0" encoding="utf-8"?>
<!-- Generator: Adobe Illustrator 28.1.0, SVG Export Plug-In . SVG Version: 6.00 Build 0)  -->
<svg version="1.1" id="Camada_1" xmlns="http://www.w3.org/2000/svg" xmlns:xlink="http://www.w3.org/1999/xlink" x="0px" y="0px"
	 viewBox="0 0 1701.88 450.33" style="enable-background:new 0 0 1701.88 450.33;" xml:space="preserve">
<style type="text/css">
	.st0{fill:#47A7F6;}
	.st1{fill:#FFFFFF;}
	.st2{fill:#EDEDED;}
</style>
<g>
	<g>
		<path class="st0" d="M226.31,445.54c-63.1,0-115.41-20.96-156.93-62.9C27.85,340.72,7.09,288.61,7.09,226.31
			S27.85,111.91,69.38,69.98c41.53-41.93,93.83-62.89,156.93-62.89c38.73,0,74.47,9.19,107.22,27.55
			c32.74,18.37,58.3,43.13,76.67,74.27l-104.22,59.9c-6.79-13.57-17.37-24.35-31.75-32.34c-14.38-7.98-30.35-11.98-47.92-11.98
			c-29.56,0-53.52,9.58-71.88,28.75c-18.37,19.17-27.55,43.53-27.55,73.08c0,29.55,9.18,53.91,27.55,73.08
			c18.36,19.17,42.32,28.75,71.88,28.75c17.97,0,34.04-3.99,48.22-11.98c14.17-7.99,24.65-18.96,31.45-32.95l104.22,59.9
			c-18.37,31.55-43.93,56.51-76.67,74.87C300.78,436.35,265.04,445.54,226.31,445.54z"/>
		<path class="st0" d="M632.42,435.36l-66.49-131.77h-29.95v131.77h-119.8V16.07H583.9c45.92,0,83.86,13.48,113.81,40.43
			c29.95,26.95,44.92,62.6,44.92,106.92c0,24.76-5.69,47.12-17.07,67.08c-11.38,19.97-27.25,36.14-47.62,48.52l82.66,156.33H632.42z
			"/>
		<path class="st0" d="M1203.85,16.67v419.29h-119.79V231.7l-93.44,156.93h-10.78L886.39,231.7v204.25h-119.8V16.67h119.8
			l98.83,170.71l98.83-170.71H1203.85z"/>
	</g>
	<g>
		<path class="st1" d="M590.69,77.73c-14.44-14.44-34.39-23.37-56.43-23.37c-22.03,0-41.98,8.93-56.43,23.37
			c-14.44,14.44-23.37,34.39-23.37,56.43c0,13.06,3.16,25.42,8.77,36.35c5.81,11.32,14.24,21.08,24.49,28.45
			c1.06,0.76,1.83,1.75,2.28,2.85c0.44,1.09,0.57,2.35,0.34,3.65c-0.59,3.34-1.43,6.6-2.53,9.77c-1.08,3.14-2.43,6.28-4.06,9.42
			c-0.69,1.11-0.94,2.49-0.6,3.86c0.67,2.7,3.41,4.34,6.11,3.67c8.23-2.07,15.88-4.65,22.82-7.86c6.35-2.94,12.12-6.41,17.2-10.53
			l1.42,0.07c1.4,0.06,2.59,0.1,3.55,0.1c22.03,0,41.99-8.93,56.43-23.37c14.44-14.44,23.37-34.39,23.37-56.43
			C614.07,112.12,605.13,92.17,590.69,77.73z M504.06,144.44c-5.68,0-10.29-4.61-10.29-10.29c0-5.68,4.61-10.29,10.29-10.29
			c5.68,0,10.29,4.61,10.29,10.29C514.35,139.84,509.74,144.44,504.06,144.44z M534.27,144.44c-5.68,0-10.29-4.61-10.29-10.29
			c0-5.68,4.61-10.29,10.29-10.29c5.68,0,10.29,4.61,10.29,10.29C544.56,139.84,539.95,144.44,534.27,144.44z M564.47,144.44
			c-5.68,0-10.29-4.61-10.29-10.29c0-5.68,4.61-10.29,10.29-10.29c5.68,0,10.29,4.61,10.29,10.29
			C574.76,139.84,570.16,144.44,564.47,144.44z"/>
		<path class="st1" d="M548.34,230.9c4.81,4.55,10.25,8.35,16.13,11.28c15.26,7.61,33.42,9.4,50.86,3.56
			c0.76-0.25,1.69-0.59,2.78-1.02l1.11-0.43c5.12,1.91,10.6,3.14,16.41,3.78c6.34,0.7,13.08,0.72,20.15,0.18
			c2.32-0.18,4.05-2.21,3.87-4.52c-0.09-1.18-0.66-2.2-1.5-2.9c-2.12-2.05-4.02-4.18-5.71-6.38c-1.71-2.22-3.23-4.58-4.59-7.07
			c-0.53-0.97-0.76-2-0.7-2.98c0.06-0.99,0.42-1.98,1.05-2.86c6.16-8.55,10.25-18.5,11.85-29c1.54-10.14,0.78-20.76-2.68-31.1
			c-5.61-16.77-17.25-29.83-31.69-37.57c0.6,4.33,0.9,8.72,0.9,13.14c0,25.39-10.01,49.54-27.96,67.49
			C584.79,218.33,567.27,227.45,548.34,230.9L548.34,230.9z"/>
	</g>
	<g>
		<path class="st2" d="M1301.48,277.26c-19.56,0-35.77-6.5-48.64-19.49c-12.87-13-19.31-29.15-19.31-48.46s6.44-35.46,19.31-48.46
			c12.87-13,29.08-19.49,48.64-19.49c12.01,0,23.08,2.85,33.23,8.54c10.15,5.69,18.07,13.37,23.76,23.02l-32.3,18.57
			c-2.11-4.21-5.38-7.55-9.84-10.03c-4.45-2.48-9.41-3.71-14.85-3.71c-9.16,0-16.59,2.97-22.28,8.91
			c-5.7,5.94-8.54,13.49-8.54,22.65c0,9.16,2.84,16.71,8.54,22.65c5.69,5.94,13.12,8.91,22.28,8.91c5.57,0,10.55-1.24,14.95-3.71
			c4.39-2.47,7.64-5.88,9.75-10.21l32.3,18.57c-5.69,9.78-13.62,17.52-23.76,23.21C1324.56,274.41,1313.48,277.26,1301.48,277.26z"
			/>
		<path class="st2" d="M1436.45,144.32h37.13v129.96h-37.13v-47.9h-31.56v47.9h-37.13V144.32h37.13v46.04h31.56V144.32z"/>
		<path class="st2" d="M1567.34,274.29l-4.45-16.71h-37.5l-4.46,16.71h-39.92l41.4-129.96h43.44l41.4,129.96H1567.34z
			 M1533.36,227.87h21.54l-10.77-39.92L1533.36,227.87z"/>
		<path class="st2" d="M1696.37,144.32v36.02h-30.63v93.94h-37.13v-93.94h-30.63v-36.02H1696.37z"/>
		<path class="st2" d="M1290.15,306.08c13.49,0,24.75,4.24,33.79,12.72c9.03,8.48,13.55,19.77,13.55,33.88
			c0,14.11-4.52,25.41-13.55,33.88c-9.04,8.48-20.3,12.72-33.79,12.72h-14.85v36.76h-37.13V306.08H1290.15z M1290.15,363.27
			c2.85,0,5.26-0.96,7.24-2.88c1.98-1.92,2.97-4.48,2.97-7.71c0-3.22-0.99-5.78-2.97-7.71c-1.98-1.92-4.4-2.88-7.24-2.88h-14.85
			v21.17H1290.15z"/>
		<path class="st2" d="M1415.65,435.86l-20.61-40.84h-9.28v40.84h-37.13V305.9h51.98c14.23,0,25.99,4.18,35.28,12.53
			c9.28,8.36,13.92,19.4,13.92,33.14c0,7.68-1.76,14.61-5.29,20.79c-3.53,6.19-8.45,11.2-14.76,15.04l25.62,48.46H1415.65z
			 M1385.76,340.06v24.13h14.11c3.96,0.13,7.09-0.86,9.38-2.97c2.29-2.1,3.43-5.07,3.43-8.91c0-3.84-1.14-6.84-3.43-9
			c-2.29-2.17-5.42-3.25-9.38-3.25H1385.76z"/>
		<path class="st2" d="M1575.97,419.43c-13.31,13.06-29.61,19.59-48.92,19.59c-19.31,0-35.62-6.53-48.92-19.59
			c-13.31-13.06-19.96-29.18-19.96-48.36c0-19.18,6.65-35.3,19.96-48.36c13.3-13.06,29.61-19.59,48.92-19.59
			c19.31,0,35.61,6.53,48.92,19.59c13.3,13.06,19.96,29.18,19.96,48.36C1595.93,390.25,1589.28,406.37,1575.97,419.43z
			 M1504.31,393.62c6,6.01,13.58,9,22.74,9c9.16,0,16.74-3,22.74-9c6-6,9-13.52,9-22.56c0-9.03-3-16.55-9-22.56
			c-6.01-6-13.58-9-22.74-9c-9.16,0-16.74,3-22.74,9c-6,6.01-9,13.53-9,22.56C1495.3,380.1,1498.3,387.62,1504.31,393.62z"/>
	</g>
</g>
</svg>
