<?xml version="1.0" encoding="utf-8"?>
<!-- Generator: Adobe Illustrator 28.1.0, SVG Export Plug-In . SVG Version: 6.00 Build 0)  -->
<svg version="1.1" id="Camada_1" xmlns="http://www.w3.org/2000/svg" xmlns:xlink="http://www.w3.org/1999/xlink" x="0px" y="0px"
	 viewBox="0 0 512 512" style="enable-background:new 0 0 512 512;" xml:space="preserve">
<style type="text/css">
	.st0{fill:#47A7F6;}
	.st1{fill:#FFFFFF;}
</style>
<g id="Logo">
	<g id="woot-log">
		<circle id="Oval" class="st0" cx="256" cy="256" r="256"/>
		<g>
			<path class="st1" d="M302.7,149.9c-20.6-20.6-49-33.3-80.3-33.3s-59.8,12.7-80.3,33.3c-20.6,20.6-33.3,49-33.3,80.3
				c0,18.6,4.5,36.2,12.5,51.7c8.3,16.1,20.3,30,34.9,40.5c1.5,1.1,2.6,2.5,3.2,4.1c0.6,1.6,0.8,3.3,0.5,5.2
				c-0.8,4.8-2,9.4-3.6,13.9c-1.5,4.5-3.5,8.9-5.8,13.4c-1,1.6-1.3,3.5-0.9,5.5c1,3.8,4.9,6.2,8.7,5.2c11.7-3,22.6-6.6,32.5-11.2
				c9-4.2,17.2-9.1,24.5-15l2,0.1c2,0.1,3.7,0.1,5.1,0.1c31.4,0,59.8-12.7,80.3-33.3c20.6-20.6,33.3-49,33.3-80.3
				C335.9,198.9,323.2,170.4,302.7,149.9z M179.3,244.9c-8.1,0-14.6-6.6-14.6-14.6s6.6-14.6,14.6-14.6s14.6,6.6,14.6,14.6
				S187.4,244.9,179.3,244.9z M222.3,244.9c-8.1,0-14.6-6.6-14.6-14.6s6.6-14.6,14.6-14.6s14.6,6.6,14.6,14.6
				S230.4,244.9,222.3,244.9z M265.3,244.9c-8.1,0-14.6-6.6-14.6-14.6s6.6-14.6,14.6-14.6s14.6,6.6,14.6,14.6
				S273.4,244.9,265.3,244.9z"/>
			<path class="st1" d="M242.4,368c6.8,6.5,14.6,11.9,23,16c21.7,10.8,47.6,13.4,72.4,5.1c1.1-0.4,2.4-0.9,4-1.5l1.6-0.6
				c7.3,2.7,15.1,4.5,23.4,5.4c9,1,18.6,1,28.7,0.2c3.3-0.3,5.8-3.1,5.5-6.4c-0.1-1.7-0.9-3.1-2.1-4.1c-3-2.9-5.7-6-8.1-9.1
				c-2.4-3.2-4.6-6.5-6.5-10.1c-0.8-1.4-1.1-2.8-1-4.2c0.1-1.4,0.6-2.8,1.5-4.1c8.8-12.2,14.6-26.3,16.9-41.3
				c2.2-14.4,1.1-29.5-3.8-44.3c-8-23.9-24.5-42.5-45.1-53.5c0.9,6.2,1.3,12.4,1.3,18.7c0,36.1-14.2,70.5-39.8,96.1
				C294.2,350.1,269.3,363,242.4,368L242.4,368z"/>
		</g>
	</g>
</g>
</svg>
