<?xml version="1.0" encoding="utf-8"?>
<!-- Generator: Adobe Illustrator 28.1.0, SVG Export Plug-In . SVG Version: 6.00 Build 0)  -->
<svg version="1.1" id="Camada_1" xmlns="http://www.w3.org/2000/svg" xmlns:xlink="http://www.w3.org/1999/xlink" x="0px" y="0px"
	 viewBox="0 0 66 66" style="enable-background:new 0 0 66 66;" xml:space="preserve">
<style type="text/css">
	.st0{fill:#FFFFFF;}
</style>
<g>
	<path class="st0" d="M42.4,9.9C38.1,5.6,32.2,3,25.8,3S13.4,5.6,9.2,9.9C5,14.1,2.3,20,2.3,26.4c0,3.8,0.9,7.5,2.6,10.7
		c1.7,3.3,4.2,6.2,7.2,8.4c0.3,0.2,0.5,0.5,0.7,0.8c0.1,0.3,0.2,0.7,0.1,1.1c-0.2,1-0.4,1.9-0.7,2.9c-0.3,0.9-0.7,1.8-1.2,2.8
		c-0.2,0.3-0.3,0.7-0.2,1.1c0.2,0.8,1,1.3,1.8,1.1c2.4-0.6,4.7-1.4,6.7-2.3c1.9-0.9,3.5-1.9,5.1-3.1l0.4,0c0.4,0,0.8,0,1.1,0
		c6.5,0,12.3-2.6,16.6-6.9c4.3-4.3,6.9-10.1,6.9-16.6C49.2,20,46.6,14.1,42.4,9.9z M16.9,29.5c-1.7,0-3-1.4-3-3s1.4-3,3-3s3,1.4,3,3
		S18.6,29.5,16.9,29.5z M25.8,29.5c-1.7,0-3-1.4-3-3s1.4-3,3-3s3,1.4,3,3S27.4,29.5,25.8,29.5z M34.6,29.5c-1.7,0-3-1.4-3-3
		s1.4-3,3-3s3,1.4,3,3S36.3,29.5,34.6,29.5z"/>
	<path class="st0" d="M29.9,54.9c1.4,1.3,3,2.5,4.7,3.3c4.5,2.2,9.8,2.8,14.9,1.1c0.2-0.1,0.5-0.2,0.8-0.3l0.3-0.1
		c1.5,0.6,3.1,0.9,4.8,1.1c1.9,0.2,3.8,0.2,5.9,0c0.7-0.1,1.2-0.6,1.1-1.3c0-0.4-0.2-0.6-0.4-0.8c-0.6-0.6-1.2-1.2-1.7-1.9
		c-0.5-0.7-0.9-1.3-1.3-2.1C59,53.5,59,53.2,59,53c0-0.3,0.1-0.6,0.3-0.8c1.8-2.5,3-5.4,3.5-8.5c0.5-3,0.2-6.1-0.8-9.1
		c-1.7-4.9-5.1-8.8-9.3-11c0.2,1.3,0.3,2.6,0.3,3.9c0,7.4-2.9,14.5-8.2,19.8C40.6,51.2,35.5,53.8,29.9,54.9L29.9,54.9z"/>
</g>
</svg>
