<svg width="66" height="66" viewBox="0 0 66 66" fill="none" xmlns="http://www.w3.org/2000/svg">
<style>.st0{fill:#fff}</style>
<path d="M42.4 9.9C38.1 5.6 32.2 3 25.8 3S13.4 5.6 9.2 9.9C5 14.1 2.3 20 2.3 26.4c0 3.8.9 7.5 2.6 10.7 1.7 3.3 4.2 6.2 7.2 8.4.3.2.5.5.7.8.1.3.2.7.1 1.1-.2 1-.4 1.9-.7 2.9-.3.9-.7 1.8-1.2 2.8-.2.3-.3.7-.2 1.1.2.8 1 1.3 1.8 1.1 2.4-.6 4.7-1.4 6.7-2.3 1.9-.9 3.5-1.9 5.1-3.1h1.5c6.5 0 12.3-2.6 16.6-6.9 4.3-4.3 6.9-10.1 6.9-16.6-.2-6.4-2.8-12.3-7-16.5zM16.9 29.5c-1.7 0-3-1.4-3-3s1.4-3 3-3 3 1.4 3 3-1.3 3-3 3zm8.9 0c-1.7 0-3-1.4-3-3s1.4-3 3-3 3 1.4 3 3-1.4 3-3 3zm8.8 0c-1.7 0-3-1.4-3-3s1.4-3 3-3 3 1.4 3 3-1.3 3-3 3z" class="st0"/>
<path d="M29.9 54.9c1.4 1.3 3 2.5 4.7 3.3 4.5 2.2 9.8 2.8 14.9 1.1.2-.1.5-.2.8-.3l.3-.1c1.5.6 3.1.9 4.8 1.1 1.9.2 3.8.2 5.9 0 .7-.1 1.2-.6 1.1-1.3 0-.4-.2-.6-.4-.8-.6-.6-1.2-1.2-1.7-1.9s-.9-1.3-1.3-2.1V53c0-.3.1-.6.3-.8 1.8-2.5 3-5.4 3.5-8.5.5-3 .2-6.1-.8-9.1-1.7-4.9-5.1-8.8-9.3-11 .2 1.3.3 2.6.3 3.9 0 7.4-2.9 14.5-8.2 19.8-4.2 3.9-9.3 6.5-14.9 7.6z" class="st0"/>
</svg>
